<svg width="80" height="30" viewBox="0 0 80 30" fill="none" xmlns="http://www.w3.org/2000/svg">
<g id="Logo">
<g id="Perficient Tools">
<path d="M9 19.0972H10.6854C11.2541 19.0972 11.6807 19.2398 11.9651 19.525C12.2494 19.8102 12.3916 20.2282 12.3916 20.7792V21.45C12.3916 22.0009 12.2494 22.419 11.9651 22.7042C11.6807 22.9894 11.2541 23.1319 10.6854 23.1319H10.1444V25.9028H9V19.0972ZM10.6854 22.1597C10.8727 22.1597 11.0114 22.1111 11.1015 22.0139C11.1987 21.9167 11.2472 21.7514 11.2472 21.5181V20.7111C11.2472 20.4778 11.1987 20.3125 11.1015 20.2153C11.0114 20.1181 10.8727 20.0694 10.6854 20.0694H10.1444V22.1597H10.6854Z" fill="#262626"/>
<path d="M13.14 19.0972H16.2611V20.0694H14.2844V21.8681H15.8554V22.8403H14.2844V24.9306H16.2611V25.9028H13.14V19.0972Z" fill="#262626"/>
<path d="M17.0464 19.0972H18.7422C19.3317 19.0972 19.7617 19.2269 20.0322 19.4861C20.3027 19.7389 20.438 20.131 20.438 20.6625V21.0806C20.438 21.787 20.1883 22.2343 19.6889 22.4222V22.4417C19.9663 22.5194 20.1605 22.6782 20.2715 22.9181C20.3894 23.1579 20.4484 23.4787 20.4484 23.8806V25.0764C20.4484 25.2708 20.4553 25.4296 20.4692 25.5528C20.4831 25.6694 20.5177 25.7861 20.5732 25.9028H19.408C19.3664 25.7926 19.3387 25.6889 19.3248 25.5917C19.3109 25.4944 19.304 25.3194 19.304 25.0667V23.8222C19.304 23.5111 19.2485 23.294 19.1375 23.1708C19.0335 23.0477 18.8497 22.9861 18.5861 22.9861H18.1908V25.9028H17.0464V19.0972ZM18.6069 22.0139C18.8358 22.0139 19.0057 21.9588 19.1167 21.8486C19.2346 21.7384 19.2936 21.5537 19.2936 21.2944V20.7694C19.2936 20.5231 19.245 20.3449 19.1479 20.2347C19.0578 20.1245 18.9121 20.0694 18.711 20.0694H18.1908V22.0139H18.6069Z" fill="#262626"/>
<path d="M21.3693 19.0972H24.3968V20.0694H22.5137V21.9653H23.991V22.9375H22.5137V25.9028H21.3693V19.0972Z" fill="#262626"/>
<path d="M25.0724 19.0972H26.2168V25.9028H25.0724V19.0972Z" fill="#262626"/>
<path d="M28.8134 26C28.2654 26 27.8458 25.8542 27.5545 25.5625C27.2701 25.2708 27.128 24.8593 27.128 24.3278V20.6722C27.128 20.1407 27.2701 19.7292 27.5545 19.4375C27.8458 19.1458 28.2654 19 28.8134 19C29.3613 19 29.7774 19.1458 30.0618 19.4375C30.3531 19.7292 30.4988 20.1407 30.4988 20.6722V21.3917H29.4168V20.6042C29.4168 20.1829 29.226 19.9722 28.8446 19.9722C28.4631 19.9722 28.2724 20.1829 28.2724 20.6042V24.4056C28.2724 24.8204 28.4631 25.0278 28.8446 25.0278C29.226 25.0278 29.4168 24.8204 29.4168 24.4056V23.3653H30.4988V24.3278C30.4988 24.8593 30.3531 25.2708 30.0618 25.5625C29.7774 25.8542 29.3613 26 28.8134 26Z" fill="#262626"/>
<path d="M31.3103 19.0972H32.4547V25.9028H31.3103V19.0972Z" fill="#262626"/>
<path d="M33.4387 19.0972H36.5598V20.0694H34.5831V21.8681H36.1541V22.8403H34.5831V24.9306H36.5598V25.9028H33.4387V19.0972Z" fill="#262626"/>
<path d="M37.3451 19.0972H38.7808L39.894 23.1708H39.9148V19.0972H40.9343V25.9028H39.7587L38.3854 20.9347H38.3646V25.9028H37.3451V19.0972Z" fill="#262626"/>
<path d="M42.8065 20.0694H41.6101V19.0972H45.1473V20.0694H43.9509V25.9028H42.8065V20.0694Z" fill="#262626"/>
<path d="M48.5161 20.0694H47.3197V19.0972H50.8569V20.0694H49.6605V25.9028H48.5161V20.0694Z" fill="#262626"/>
<path d="M53.1515 26C52.5896 26 52.1596 25.8509 51.8614 25.5528C51.5631 25.2546 51.414 24.8333 51.414 24.2889V20.7111C51.414 20.1667 51.5631 19.7454 51.8614 19.4472C52.1596 19.1491 52.5896 19 53.1515 19C53.7132 19 54.1433 19.1491 54.4415 19.4472C54.7397 19.7454 54.8889 20.1667 54.8889 20.7111V24.2889C54.8889 24.8333 54.7397 25.2546 54.4415 25.5528C54.1433 25.8509 53.7132 26 53.1515 26ZM53.1515 25.0278C53.5468 25.0278 53.7445 24.8042 53.7445 24.3569V20.6431C53.7445 20.1958 53.5468 19.9722 53.1515 19.9722C52.7561 19.9722 52.5584 20.1958 52.5584 20.6431V24.3569C52.5584 24.8042 52.7561 25.0278 53.1515 25.0278Z" fill="#262626"/>
<path d="M57.4439 26C56.8821 26 56.4521 25.8509 56.1538 25.5528C55.8556 25.2546 55.7065 24.8333 55.7065 24.2889V20.7111C55.7065 20.1667 55.8556 19.7454 56.1538 19.4472C56.4521 19.1491 56.8821 19 57.4439 19C58.0057 19 58.4357 19.1491 58.7339 19.4472C59.0322 19.7454 59.1813 20.1667 59.1813 20.7111V24.2889C59.1813 24.8333 59.0322 25.2546 58.7339 25.5528C58.4357 25.8509 58.0057 26 57.4439 26ZM57.4439 25.0278C57.8392 25.0278 58.0369 24.8042 58.0369 24.3569V20.6431C58.0369 20.1958 57.8392 19.9722 57.4439 19.9722C57.0485 19.9722 56.8509 20.1958 56.8509 20.6431V24.3569C56.8509 24.8042 57.0485 25.0278 57.4439 25.0278Z" fill="#262626"/>
<path d="M60.0821 19.0972H61.2265V24.9306H63.1096V25.9028H60.0821V19.0972Z" fill="#262626"/>
<path d="M65.273 26C64.7181 26 64.2985 25.8542 64.0141 25.5625C63.7298 25.2644 63.5876 24.8398 63.5876 24.2889V23.9H64.6696V24.3667C64.6696 24.8074 64.8672 25.0278 65.2626 25.0278C65.4568 25.0278 65.6024 24.9759 65.6995 24.8722C65.8036 24.762 65.8556 24.587 65.8556 24.3472C65.8556 24.062 65.7862 23.8125 65.6475 23.5986C65.5088 23.3782 65.2522 23.1157 64.8776 22.8111C64.406 22.4222 64.0766 22.0722 63.8893 21.7611C63.702 21.4435 63.6084 21.087 63.6084 20.6917C63.6084 20.1537 63.754 19.7389 64.0453 19.4472C64.3367 19.1491 64.7597 19 65.3146 19C65.8625 19 66.2752 19.1491 66.5526 19.4472C66.837 19.7389 66.9792 20.1602 66.9792 20.7111V20.9931H65.8972V20.6431C65.8972 20.4097 65.8487 20.2412 65.7516 20.1375C65.6545 20.0273 65.5123 19.9722 65.325 19.9722C64.9435 19.9722 64.7528 20.1894 64.7528 20.6236C64.7528 20.8699 64.8222 21.1 64.9609 21.3139C65.1065 21.5278 65.3666 21.787 65.7412 22.0917C66.2197 22.4806 66.5492 22.8338 66.7295 23.1514C66.9098 23.469 67 23.8417 67 24.2694C67 24.8269 66.8509 25.2546 66.5526 25.5528C66.2613 25.8509 65.8348 26 65.273 26Z" fill="#262626"/>
</g>
<g id="PRFT">
<path d="M9 5.00874H15.7313C16.974 5.00291 18.0441 5.10484 18.9416 5.31452C19.8454 5.51837 20.5891 5.8125 21.1728 6.19691C21.7565 6.58132 22.1864 7.04435 22.4626 7.58602C22.745 8.12186 22.8862 8.71886 22.8862 9.37702C22.8862 9.95363 22.7544 10.5069 22.4908 11.037C22.2335 11.5612 21.8318 12.0242 21.2858 12.4261C20.746 12.828 20.0556 13.1483 19.2146 13.3871C18.3799 13.6259 17.3851 13.7453 16.2302 13.7453H14.4415V17.9913H9V5.00874ZM14.4415 11.8407C14.8746 11.8349 15.2606 11.7737 15.5995 11.6573C15.9384 11.5349 16.224 11.369 16.4562 11.1593C16.6884 10.9438 16.8641 10.6875 16.9834 10.3905C17.1089 10.0876 17.1717 9.74978 17.1717 9.37702C17.1717 9.01008 17.1089 8.67809 16.9834 8.38105C16.8579 8.08401 16.6759 7.83065 16.4374 7.62097C16.2051 7.40547 15.9196 7.23656 15.5807 7.11425C15.248 6.99194 14.8683 6.92496 14.4415 6.91331V11.8407Z" fill="#262626"/>
<path d="M24.502 5.00874H32.5701C33.612 5.00874 34.522 5.11066 35.3003 5.31452C36.0848 5.51837 36.7376 5.80376 37.2585 6.1707C37.7857 6.53763 38.1811 6.97737 38.4447 7.48992C38.7083 8.00246 38.8401 8.56743 38.8401 9.18481C38.8401 9.9478 38.6455 10.6263 38.2564 11.2204C37.8673 11.8087 37.2899 12.2776 36.5242 12.627L39.4615 18H33.3139L31.0921 13.2823H29.9435V17.9913H24.502V5.00874ZM30.273 11.7009C30.7186 11.7009 31.1172 11.6427 31.4687 11.5262C31.8201 11.4097 32.1182 11.2466 32.363 11.037C32.6078 10.8215 32.7961 10.5681 32.9279 10.2769C33.0597 9.97984 33.1256 9.65659 33.1256 9.30712C33.1256 8.95766 33.0597 8.63732 32.9279 8.3461C32.7961 8.04906 32.6078 7.7957 32.363 7.58602C32.1182 7.37052 31.8201 7.20452 31.4687 7.08804C31.1172 6.97155 30.7186 6.91331 30.273 6.91331H29.9529L29.9435 11.7009H30.273Z" fill="#262626"/>
<path d="M40.9276 5.00874H52.4038V7.00941H46.3786L46.3691 10.7749H50.7939V12.7755H46.3691V17.9913H40.9276V5.00874Z" fill="#262626"/>
<path d="M57.5668 7.00067H53.5751V5H67V7.00067H63.0083V17.9913H57.5668V7.00067Z" fill="#262626"/>
</g>
</g>
</svg>
