<svg width="24" height="24" viewBox="0 0 24 24" xmlns="http://www.w3.org/2000/svg"><path d="M7.38845 11.25L18.75 11.25C18.9628 11.25 19.141 11.3218 19.2846 11.4654C19.4282 11.609 19.5 11.7872 19.5 12C19.5 12.2128 19.4282 12.391 19.2846 12.5346C19.141 12.6782 18.9628 12.75 18.75 12.75L7.38845 12.75L10.6808 16.0423C10.8295 16.191 10.9029 16.3651 10.901 16.5644C10.8991 16.7638 10.8257 16.941 10.6808 17.0962C10.5257 17.2513 10.3475 17.3314 10.1462 17.3365C9.94492 17.3417 9.76672 17.2667 9.6116 17.1115L5.13275 12.6327C5.03917 12.5391 4.97314 12.4404 4.93467 12.3365C4.89621 12.2327 4.87697 12.1205 4.87697 12C4.87697 11.8795 4.89621 11.7673 4.93467 11.6635C4.97314 11.5596 5.03917 11.4609 5.13275 11.3673L9.6116 6.88848C9.7603 6.73976 9.93689 6.66636 10.1414 6.66828C10.3459 6.67021 10.5257 6.74874 10.6808 6.90385C10.8257 7.05899 10.9007 7.23463 10.9058 7.43078C10.9109 7.62693 10.8359 7.80256 10.6808 7.95768L7.38845 11.25Z"/></svg>
