<svg width="24" height="24" viewBox="0 0 24 24" xmlns="http://www.w3.org/2000/svg"><path d="M11.25 16.6116L11.25 5.25003C11.25 5.03721 11.3218 4.85901 11.4654 4.71543C11.609 4.57183 11.7872 4.50003 12 4.50003C12.2128 4.50003 12.391 4.57183 12.5346 4.71543C12.6782 4.85901 12.75 5.03721 12.75 5.25003L12.75 16.6116L16.0423 13.3192C16.1911 13.1705 16.3651 13.0971 16.5644 13.0991C16.7638 13.101 16.941 13.1744 17.0962 13.3192C17.2513 13.4744 17.3314 13.6526 17.3365 13.8538C17.3417 14.0551 17.2667 14.2333 17.1115 14.3884L12.6327 18.8673C12.5391 18.9609 12.4404 19.0269 12.3365 19.0654C12.2327 19.1038 12.1205 19.1231 12 19.1231C11.8795 19.1231 11.7673 19.1038 11.6635 19.0654C11.5596 19.0269 11.4609 18.9609 11.3673 18.8673L6.8885 14.3884C6.73978 14.2397 6.66638 14.0631 6.66829 13.8587C6.67023 13.6542 6.74875 13.4744 6.90387 13.3192C7.059 13.1744 7.23464 13.0994 7.43079 13.0942C7.62694 13.0891 7.80258 13.1641 7.9577 13.3192L11.25 16.6116Z"/></svg>
