<svg width="24" height="24" viewBox="0 0 24 24" xmlns="http://www.w3.org/2000/svg"><path d="M12.75 7.38842L12.75 18.75C12.75 18.9628 12.6782 19.141 12.5346 19.2846C12.391 19.4282 12.2128 19.5 12 19.5C11.7872 19.5 11.609 19.4282 11.4654 19.2846C11.3218 19.141 11.25 18.9628 11.25 18.75L11.25 7.38842L7.95765 10.6808C7.80894 10.8295 7.6349 10.9029 7.43555 10.9009C7.2362 10.899 7.05896 10.8256 6.90383 10.6808C6.74871 10.5256 6.66859 10.3474 6.66345 10.1462C6.65832 9.94489 6.73332 9.76669 6.88845 9.61157L11.3673 5.13272C11.4609 5.03914 11.5596 4.97311 11.6635 4.93464C11.7673 4.89618 11.8795 4.87694 12 4.87694C12.1205 4.87694 12.2327 4.89618 12.3365 4.93464C12.4404 4.97311 12.5391 5.03914 12.6327 5.13272L17.1115 9.61157C17.2602 9.76027 17.3336 9.93686 17.3317 10.1413C17.3298 10.3458 17.2512 10.5256 17.0961 10.6808C16.941 10.8256 16.7654 10.9006 16.5692 10.9058C16.3731 10.9109 16.1974 10.8359 16.0423 10.6808L12.75 7.38842Z"/></svg>
