<svg width="40" height="40" viewBox="0 0 40 40" xmlns="http://www.w3.org/2000/svg">
  <path d="M32.9047 9.34629H16.2229C15.7643 7.98414 14.4759 7 12.961 7C11.4462 7 10.1578 7.98414 9.69917 9.34629H7.09527C6.49039 9.34629 6 9.83668 6 10.4416C6 11.0464 6.49039 11.5368 7.09527 11.5368H9.69924C10.1579 12.899 11.4463 13.8831 12.9611 13.8831C14.4759 13.8831 15.7643 12.899 16.223 11.5368H32.9047C33.5096 11.5368 34 11.0464 34 10.4416C34 9.83668 33.5096 9.34629 32.9047 9.34629ZM12.961 11.6926C12.2712 11.6926 11.71 11.1314 11.71 10.4416C11.71 9.75176 12.2712 9.19054 12.961 9.19054C13.6508 9.19054 14.212 9.75176 14.212 10.4416C14.212 11.1314 13.6508 11.6926 12.961 11.6926Z" />
  <path d="M32.9047 18.7315H30.3007C29.8421 17.3694 28.5536 16.3853 27.0388 16.3853C25.5241 16.3853 24.2357 17.3694 23.777 18.7315H7.09527C6.49039 18.7315 6 19.2219 6 19.8268C6 20.4317 6.49039 20.9221 7.09527 20.9221H23.777C24.2357 22.2842 25.5241 23.2684 27.0389 23.2684C28.5537 23.2684 29.8421 22.2842 30.3008 20.9221H32.9047C33.5096 20.9221 34 20.4317 34 19.8268C34 19.2219 33.5096 18.7315 32.9047 18.7315ZM27.0389 21.0778C26.3491 21.0778 25.7879 20.5166 25.7879 19.8268C25.7879 19.137 26.3491 18.5758 27.0389 18.5758C27.7287 18.5758 28.2899 19.137 28.2899 19.8268C28.2899 20.5166 27.7287 21.0778 27.0389 21.0778Z" />
  <path d="M32.9047 28.1168H20.9155C20.4569 26.7546 19.1685 25.7705 17.6537 25.7705C16.1388 25.7705 14.8504 26.7546 14.3918 28.1168H7.09527C6.49039 28.1168 6 28.6072 6 29.2121C6 29.8169 6.49039 30.3073 7.09527 30.3073H14.3918C14.8504 31.6695 16.1388 32.6536 17.6537 32.6536C19.1685 32.6536 20.4569 31.6695 20.9155 30.3073H32.9047C33.5096 30.3073 34 29.8169 34 29.2121C34 28.6072 33.5096 28.1168 32.9047 28.1168ZM17.6537 30.4632C16.9639 30.4632 16.4027 29.9019 16.4027 29.2121C16.4027 28.5223 16.9639 27.9611 17.6537 27.9611C18.3435 27.9611 18.9047 28.5223 18.9047 29.2121C18.9047 29.9019 18.3435 30.4632 17.6537 30.4632Z" />
</svg>