<svg xmlns="http://www.w3.org/2000/svg" height="24" viewBox="0 -960 960 960" width="24"><path d="M757.384-314.616 630.922-441.078q6.077-12.769 9.115-27.384 3.039-14.615 3.039-31.538 0-68.076-47.5-115.576T480-663.076q-16.923 0-31.153 3.039-14.231 3.038-27.769 9.115l-99.692-99.692q37.923-15.077 77.461-22.231 39.538-7.154 81.153-7.154 133.384 0 242.768 70.692 109.384 70.692 164.846 185.153 2.615 4.616 3.615 10.962t1 13.192q0 6.846-1.307 13.192-1.308 6.346-3.308 10.962-22.231 46.768-55.192 87.884-32.962 41.115-75.038 73.346Zm12.001 208.307L628.616-245.848q-30.769 11.385-68.192 18.616Q523-220.001 480-220.001q-134.153 0-242.961-70.692-108.807-70.692-164.653-185.153-2.615-4.616-3.615-10.962t-1-13.192q0-6.846 1-12.884 1-6.039 3.615-10.654 22.539-46.154 54.616-85.308t69-69.615l-90.308-90.924q-8.308-8.308-8.5-20.576-.192-12.269 9.115-21.577 8.692-8.692 21.077-8.692 12.384 0 21.076 8.692l663.076 663.076q8.307 8.307 8.807 20.576t-8.807 21.577q-8.692 8.692-21.077 8.692-12.384 0-21.076-8.692ZM480-336.924q12.539 0 25.693-2.154 13.154-2.154 23.385-6.308L325.386-549.078q-4.154 11-6.308 23.962T316.924-500q0 68.076 47.5 115.576T480-336.924ZM586-486 466-606q54.307-9 91.654 30.654Q595-535.693 586-486Z"/></svg>